<svg width="43" height="43" viewBox="0 0 43 43" fill="none" xmlns="http://www.w3.org/2000/svg">
<path d="M21.5 43C33.3741 43 43 33.3741 43 21.5C43 9.62588 33.3741 0 21.5 0C9.62588 0 0 9.62588 0 21.5C0 33.3741 9.62588 43 21.5 43Z" fill="#B9D8F9"/>
<path d="M21.5 21.0012C23.9413 21.0012 25.9204 19.0221 25.9204 16.5808C25.9204 14.1395 23.9413 12.1604 21.5 12.1604C19.0587 12.1604 17.0796 14.1395 17.0796 16.5808C17.0796 19.0221 19.0587 21.0012 21.5 21.0012Z" fill="white"/>
<path d="M24.8282 23.1426H18.1718C15.7552 23.1426 13.803 25.0948 13.803 27.5114V30.8396H29.197V27.5114C29.197 25.1034 27.2362 23.1426 24.8282 23.1426Z" fill="white"/>
</svg>
