<svg width="14" height="20" viewBox="0 0 14 20" fill="none" xmlns="http://www.w3.org/2000/svg">
<path d="M13.2815 19.4016C13.5628 19.0613 13.6982 18.6237 13.6583 18.184C13.6183 17.7444 13.4063 17.3384 13.0683 17.0544L4.60436 10.0001L13.0681 2.94573C13.4074 2.66254 13.6204 2.25617 13.66 1.816C13.6997 1.37584 13.5629 0.937936 13.2797 0.598632C12.9966 0.259329 12.5902 0.0464169 12.15 0.00673521C11.7098 -0.0329465 11.2719 0.103852 10.9326 0.387038L0.932326 8.72074C0.744849 8.87707 0.594023 9.0727 0.490519 9.29378C0.387016 9.51485 0.333366 9.75598 0.333366 10.0001C0.333366 10.2442 0.387016 10.4853 0.490519 10.7064C0.594023 10.9275 0.744849 11.1231 0.932326 11.2794L10.9328 19.6131C11.2724 19.8962 11.7105 20.0329 12.1509 19.9933C12.5913 19.9536 12.9979 19.7408 13.2815 19.4016Z" fill="white"/>
</svg>
