<svg width="64" height="64" viewBox="0 0 64 64" fill="none" xmlns="http://www.w3.org/2000/svg">
<g clip-path="url(#clip0)">
<path d="M32 64C49.6731 64 64 49.6731 64 32C64 14.3269 49.6731 0 32 0C14.3269 0 0 14.3269 0 32C0 49.6731 14.3269 64 32 64Z" fill="#DC691D"/>
<path d="M24.2759 58.4827C24.1578 58.4827 24.0375 58.4628 23.9195 58.4231C21.6686 57.6562 19.423 56.534 17.0528 54.9936C16.5419 54.6615 16.3973 53.9785 16.7295 53.4675C17.0618 52.9565 17.7447 52.812 18.2567 53.1442C20.4713 54.5842 22.5557 55.627 24.6313 56.3353C25.2084 56.5317 25.5163 57.1596 25.3198 57.7367C25.1642 58.1936 24.7349 58.4827 24.2759 58.4827Z" fill="#EF9665"/>
<path d="M12.139 50.7586C11.8158 50.7586 11.4958 50.6173 11.2773 50.3448C11.0302 50.0369 10.7575 49.7126 10.4762 49.3782C9.53927 48.2626 8.47777 46.9992 7.84227 45.7368C7.56752 45.1928 7.78715 44.5297 8.33115 44.2549C8.87515 43.9791 9.53827 44.1998 9.81302 44.7438C10.3328 45.7767 11.3072 46.9353 12.1655 47.9582C12.4579 48.3058 12.7404 48.6434 12.9987 48.9646C13.3804 49.4402 13.3043 50.1342 12.8288 50.5161C12.6245 50.6791 12.3808 50.7586 12.139 50.7586Z" fill="#EF9665"/>
<path d="M8.93905 9.93103C8.92143 9.93103 8.88493 9.93103 8.8398 9.93103C8.1678 10.6362 7.5278 11.371 6.92093 12.1358C8.1038 12.1369 8.9093 12.138 8.93918 12.138C23.5422 12.138 35.4219 26.2457 35.4219 43.5863C35.4219 51.3082 33.5472 58.143 29.9952 63.36L29.6333 63.9029C30.4155 63.9614 31.2033 64 32 64C32.0652 64 32.1303 63.9957 32.1953 63.9957C35.7407 58.5005 37.6287 51.4715 37.6287 43.5863C37.6288 25.0284 24.7592 9.93103 8.93905 9.93103Z" fill="#C25561"/>
<path d="M25.1211 0.749268C23.9636 1.00302 22.8315 1.32089 21.7247 1.69489L22.7609 2.12639C37.5272 8.06952 47.4484 26.5049 47.4484 48C47.4484 51.4704 46.9066 54.8734 46.3814 58.1639L45.7777 60.8871C46.6582 60.4668 47.5146 60.0044 48.3476 59.5079L48.5364 58.656L48.5595 58.5115C49.0991 55.135 49.6552 51.6448 49.6552 48C49.6551 26.3515 39.8565 7.63039 25.1211 0.749268Z" fill="#C25561"/>
<path d="M62.3184 42.0613C57.3815 38.9154 54.069 29.5669 54.069 18.7587C54.069 15.6348 54.3802 12.6069 54.9694 9.7314C54.3459 9.08815 53.696 8.47353 53.0207 7.88428L52.9357 8.61478C52.2228 11.8324 51.862 15.2443 51.862 18.7588C51.862 30.5238 55.531 40.4194 61.2083 43.9704C61.2491 43.9958 61.2921 44.0189 61.3363 44.0388L61.6021 44.159C61.8813 43.4793 62.1363 42.7863 62.369 42.0834L62.3184 42.0613Z" fill="#C25561"/>
<path d="M63.0555 24.276C62.8713 23.5311 62.6583 22.7973 62.4222 22.0735C37.2425 21.9366 16.7945 28.6577 1.62878 42.0789C1.87816 42.8293 2.14853 43.5697 2.45091 44.2947L2.94078 43.8599C17.7975 30.6362 37.9675 24.052 62.8965 24.276H63.0555Z" fill="#C25561"/>
</g>
<defs>
<clipPath id="clip0">
<rect width="64" height="64" fill="white"/>
</clipPath>
</defs>
</svg>
