<svg width="51" height="42" viewBox="0 0 51 42" fill="none" xmlns="http://www.w3.org/2000/svg">
<path d="M39.29 13.2841V15.9681H4.40002V13.2841C4.40002 12.3945 4.75339 11.5414 5.38239 10.9124C6.01139 10.2834 6.86449 9.93005 7.75402 9.93005H35.934C36.3746 9.92979 36.811 10.0164 37.2182 10.1848C37.6253 10.3532 37.9953 10.6002 38.307 10.9117C38.6186 11.2232 38.8658 11.593 39.0345 12.0001C39.2032 12.4071 39.29 12.8434 39.29 13.2841V13.2841Z" fill="#FD7785"/>
<path d="M39.29 13.2841V14.6261H4.40002V13.2841C4.40002 12.3945 4.75339 11.5414 5.38239 10.9124C6.01139 10.2834 6.86449 9.93005 7.75402 9.93005H35.934C36.3746 9.92979 36.811 10.0164 37.2182 10.1848C37.6253 10.3532 37.9953 10.6002 38.307 10.9117C38.6186 11.2232 38.8658 11.593 39.0345 12.0001C39.2032 12.4071 39.29 12.8434 39.29 13.2841V13.2841Z" fill="#FD7785"/>
<path d="M39.29 16.368H4.4C4.29391 16.368 4.19217 16.3259 4.11716 16.2509C4.04214 16.1759 4 16.0741 4 15.968V13.284C4.00159 12.2889 4.39761 11.335 5.10127 10.6313C5.80494 9.92764 6.75886 9.53162 7.754 9.53003H35.934C36.9291 9.53162 37.8831 9.92764 38.5867 10.6313C39.2904 11.335 39.6864 12.2889 39.688 13.284V15.968C39.688 16.0738 39.6461 16.1752 39.5716 16.2502C39.497 16.3251 39.3957 16.3675 39.29 16.368ZM4.8 15.568H38.89V13.284C38.8889 12.5009 38.5774 11.7502 38.0236 11.1964C37.4699 10.6427 36.7191 10.3311 35.936 10.33H7.754C6.97088 10.3311 6.22013 10.6427 5.66638 11.1964C5.11262 11.7502 4.80106 12.5009 4.8 13.284V15.568Z" fill="#F9D9DD"/>
<path d="M39.29 15.968V31.736C39.29 32.6256 38.9367 33.4787 38.3077 34.1077C37.6787 34.7367 36.8256 35.09 35.936 35.09H7.75402C6.86449 35.09 6.01139 34.7367 5.38239 34.1077C4.75339 33.4787 4.40002 32.6256 4.40002 31.736V15.968H39.29Z" fill="#C1CBD6"/>
<path d="M37.278 17.312V30.026C37.278 30.9155 36.9247 31.7686 36.2957 32.3976C35.6667 33.0266 34.8136 33.38 33.924 33.38H7.75402C6.86449 33.38 6.01139 33.0266 5.38239 32.3976C4.75339 31.7686 4.40002 30.9155 4.40002 30.026V17.312H37.278Z" fill="white"/>
<path d="M35.936 35.49H7.754C6.75886 35.4884 5.80494 35.0924 5.10127 34.3887C4.39761 33.6851 4.00159 32.7311 4 31.736V15.968C4 15.8619 4.04214 15.7602 4.11716 15.6852C4.19217 15.6101 4.29391 15.568 4.4 15.568H39.29C39.3961 15.568 39.4978 15.6101 39.5728 15.6852C39.6479 15.7602 39.69 15.8619 39.69 15.968V31.736C39.6884 32.7311 39.2924 33.6851 38.5887 34.3887C37.8851 35.0924 36.9311 35.4884 35.936 35.49ZM4.8 16.368V31.736C4.80106 32.5191 5.11262 33.2699 5.66638 33.8236C6.22013 34.3774 6.97088 34.6889 7.754 34.69H35.934C36.7171 34.6889 37.4679 34.3774 38.0216 33.8236C38.5754 33.2699 38.8869 32.5191 38.888 31.736V16.368H4.8Z" fill="#F9D9DD"/>
<path d="M11.7821 6.91003H11.7801C10.6689 6.91003 9.76807 7.81084 9.76807 8.92203V10.936C9.76807 12.0472 10.6689 12.948 11.7801 12.948H11.7821C12.8933 12.948 13.7941 12.0472 13.7941 10.936V8.92203C13.7941 7.81084 12.8933 6.91003 11.7821 6.91003Z" fill="white"/>
<path d="M11.7799 13.348C11.1405 13.347 10.5277 13.0925 10.0755 12.6404C9.62344 12.1883 9.36898 11.5754 9.36792 10.936V8.92203C9.36792 8.60515 9.43033 8.29138 9.5516 7.99862C9.67286 7.70586 9.8506 7.43985 10.0747 7.21579C10.2987 6.99172 10.5647 6.81398 10.8575 6.69271C11.1503 6.57145 11.464 6.50903 11.7809 6.50903C12.0978 6.50903 12.4116 6.57145 12.7043 6.69271C12.9971 6.81398 13.2631 6.99172 13.4872 7.21579C13.7112 7.43985 13.889 7.70586 14.0102 7.99862C14.1315 8.29138 14.1939 8.60515 14.1939 8.92203V10.936C14.1929 11.5758 13.9381 12.1889 13.4856 12.6411C13.033 13.0933 12.4196 13.3475 11.7799 13.348V13.348ZM11.7799 7.31003C11.3526 7.31056 10.9428 7.48057 10.6406 7.78276C10.3385 8.08496 10.1684 8.49467 10.1679 8.92203V10.936C10.1679 11.3638 10.3379 11.7741 10.6404 12.0766C10.9429 12.3791 11.3531 12.549 11.7809 12.549C12.2087 12.549 12.619 12.3791 12.9215 12.0766C13.224 11.7741 13.3939 11.3638 13.3939 10.936V8.92203C13.3934 8.49432 13.2231 8.08431 12.9205 7.78206C12.6179 7.4798 12.2076 7.31003 11.7799 7.31003Z" fill="#F9D9DD"/>
<path d="M31.91 6.91003H31.908C30.7968 6.91003 29.896 7.81084 29.896 8.92203V10.936C29.896 12.0472 30.7968 12.948 31.908 12.948H31.91C33.0212 12.948 33.922 12.0472 33.922 10.936V8.92203C33.922 7.81084 33.0212 6.91003 31.91 6.91003Z" fill="white"/>
<path d="M31.91 13.348C31.2707 13.347 30.6578 13.0925 30.2057 12.6404C29.7536 12.1883 29.4991 11.5754 29.498 10.936V8.92203C29.498 8.28207 29.7523 7.66831 30.2048 7.21579C30.6573 6.76326 31.2711 6.50903 31.911 6.50903C32.551 6.50903 33.1648 6.76326 33.6173 7.21579C34.0698 7.66831 34.324 8.28207 34.324 8.92203V10.936C34.323 11.5758 34.0683 12.1889 33.6157 12.6411C33.1632 13.0933 32.5498 13.3475 31.91 13.348V13.348ZM31.91 7.31003C31.4827 7.31056 31.073 7.48057 30.7708 7.78276C30.4686 8.08496 30.2986 8.49467 30.298 8.92203V10.936C30.298 11.3638 30.468 11.7741 30.7705 12.0766C31.073 12.3791 31.4833 12.549 31.911 12.549C32.3388 12.549 32.7491 12.3791 33.0516 12.0766C33.3541 11.7741 33.524 11.3638 33.524 10.936V8.92203C33.5235 8.49432 33.3532 8.08431 33.0506 7.78206C32.748 7.4798 32.3378 7.31003 31.91 7.31003V7.31003Z" fill="#F9D9DD"/>
<path d="M39.29 22.6781C42.9958 22.6781 46 19.6739 46 15.9681C46 12.2622 42.9958 9.25806 39.29 9.25806C35.5841 9.25806 32.58 12.2622 32.58 15.9681C32.58 19.6739 35.5841 22.6781 39.29 22.6781Z" fill="#C25561"/>
<path d="M39.29 21C42.532 21 45.16 18.3719 45.16 15.13C45.16 11.8881 42.532 9.26001 39.29 9.26001C36.0481 9.26001 33.42 11.8881 33.42 15.13C33.42 18.3719 36.0481 21 39.29 21Z" fill="#FD7785"/>
<path d="M39.2901 23.078C37.8838 23.078 36.5092 22.661 35.34 21.8798C34.1707 21.0985 33.2594 19.9881 32.7213 18.6889C32.1831 17.3897 32.0423 15.9601 32.3167 14.5809C32.591 13.2017 33.2682 11.9349 34.2625 10.9405C35.2569 9.94615 36.5238 9.26899 37.903 8.99465C39.2822 8.72031 40.7118 8.86111 42.0109 9.39925C43.3101 9.93739 44.4205 10.8487 45.2018 12.0179C45.9831 13.1872 46.4001 14.5618 46.4001 15.968C46.3979 17.8531 45.6482 19.6603 44.3152 20.9932C42.9823 22.3261 41.1751 23.0759 39.2901 23.078ZM39.2901 9.65804C38.0421 9.65804 36.8221 10.0281 35.7844 10.7215C34.7467 11.4148 33.938 12.4003 33.4604 13.5533C32.9828 14.7063 32.8578 15.975 33.1013 17.1991C33.3448 18.4231 33.9457 19.5474 34.8282 20.4299C35.7107 21.3123 36.835 21.9133 38.059 22.1568C39.2831 22.4003 40.5518 22.2753 41.7048 21.7977C42.8578 21.3201 43.8433 20.5114 44.5366 19.4737C45.23 18.436 45.6001 17.216 45.6001 15.968C45.5985 14.295 44.9332 12.691 43.7501 11.5079C42.5671 10.3249 40.9631 9.65962 39.2901 9.65804V9.65804Z" fill="#F9D9DD"/>
<path d="M41.638 18.38C41.5427 18.38 41.4505 18.346 41.378 18.284L39.03 16.272C38.9861 16.2344 38.9509 16.1878 38.9267 16.1353C38.9025 16.0829 38.89 16.0258 38.89 15.968V11.27C38.89 11.1639 38.9322 11.0622 39.0072 10.9872C39.0822 10.9121 39.1839 10.87 39.29 10.87C39.3961 10.87 39.4978 10.9121 39.5729 10.9872C39.6479 11.0622 39.69 11.1639 39.69 11.27V15.782L41.89 17.676C41.9522 17.7291 41.9965 17.8001 42.0171 17.8792C42.0377 17.9583 42.0336 18.0419 42.0053 18.1186C41.9769 18.1953 41.9258 18.2615 41.8587 18.3082C41.7916 18.3549 41.7118 18.38 41.63 18.38H41.638Z" fill="#F9D9DD"/>
<path d="M19.498 19.994H17.484C16.9284 19.994 16.478 20.4444 16.478 21V23.014C16.478 23.5696 16.9284 24.02 17.484 24.02H19.498C20.0536 24.02 20.504 23.5696 20.504 23.014V21C20.504 20.4444 20.0536 19.994 19.498 19.994Z" fill="#FD7785"/>
<path d="M26.208 19.994H24.194C23.6384 19.994 23.188 20.4444 23.188 21V23.014C23.188 23.5696 23.6384 24.02 24.194 24.02H26.208C26.7636 24.02 27.214 23.5696 27.214 23.014V21C27.214 20.4444 26.7636 19.994 26.208 19.994Z" fill="#FD7785"/>
<path d="M32.916 19.994H30.902C30.3464 19.994 29.896 20.4444 29.896 21V23.014C29.896 23.5696 30.3464 24.02 30.902 24.02H32.916C33.4716 24.02 33.922 23.5696 33.922 23.014V21C33.922 20.4444 33.4716 19.994 32.916 19.994Z" fill="#FD7785"/>
<path d="M12.7881 27.038H10.7741C10.2185 27.038 9.76807 27.4884 9.76807 28.044V30.058C9.76807 30.6136 10.2185 31.064 10.7741 31.064H12.7881C13.3437 31.064 13.7941 30.6136 13.7941 30.058V28.044C13.7941 27.4884 13.3437 27.038 12.7881 27.038Z" fill="#FD7785"/>
<path d="M19.498 27.038H17.484C16.9284 27.038 16.478 27.4884 16.478 28.044V30.058C16.478 30.6136 16.9284 31.064 17.484 31.064H19.498C20.0536 31.064 20.504 30.6136 20.504 30.058V28.044C20.504 27.4884 20.0536 27.038 19.498 27.038Z" fill="#FD7785"/>
<path d="M26.208 27.038H24.194C23.6384 27.038 23.188 27.4884 23.188 28.044V30.058C23.188 30.6136 23.6384 31.064 24.194 31.064H26.208C26.7636 31.064 27.214 30.6136 27.214 30.058V28.044C27.214 27.4884 26.7636 27.038 26.208 27.038Z" fill="#FD7785"/>
<path d="M29.7999 2C30.3522 2 30.7999 1.55228 30.7999 1C30.7999 0.447715 30.3522 0 29.7999 0C29.2476 0 28.7999 0.447715 28.7999 1C28.7999 1.55228 29.2476 2 29.7999 2Z" fill="#C1CBD6"/>
<path d="M1.99995 19.8C2.44178 19.8 2.79995 19.4418 2.79995 19C2.79995 18.5581 2.44178 18.2 1.99995 18.2C1.55812 18.2 1.19995 18.5581 1.19995 19C1.19995 19.4418 1.55812 19.8 1.99995 19.8Z" fill="#C1CBD6"/>
<path d="M23 41.6C23.3314 41.6 23.6 41.3314 23.6 41C23.6 40.6687 23.3314 40.4 23 40.4C22.6687 40.4 22.4 40.6687 22.4 41C22.4 41.3314 22.6687 41.6 23 41.6Z" fill="#C1CBD6"/>
<path d="M20.8 7.8C21.0209 7.8 21.2 7.62091 21.2 7.4C21.2 7.17909 21.0209 7 20.8 7C20.5791 7 20.4 7.17909 20.4 7.4C20.4 7.62091 20.5791 7.8 20.8 7.8Z" fill="#C1CBD6"/>
<path d="M8.2 1.80002C8.31046 1.80002 8.4 1.71048 8.4 1.60002C8.4 1.48957 8.31046 1.40002 8.2 1.40002C8.08954 1.40002 8 1.48957 8 1.60002C8 1.71048 8.08954 1.80002 8.2 1.80002Z" fill="#C1CBD6"/>
</svg>
