<svg width="84" height="84" viewBox="0 0 84 84" fill="none" xmlns="http://www.w3.org/2000/svg">
<path d="M75.0975 75.6524L64.9848 73.4267L61.8505 83.3214C61.6251 84.0328 60.6616 84.1371 60.2893 83.4904L47.7788 61.7579C53.9413 60.4226 59.4244 57.258 63.6346 52.8597L76.0253 74.3868C76.3971 75.0325 75.8253 75.8126 75.0975 75.6524Z" fill="#B9D8F9"/>
<path d="M75.0977 75.6522L65.7503 73.5949C65.3167 73.4995 64.8822 73.7505 64.7482 74.1735L61.8507 83.3211C61.6252 84.0325 60.6618 84.1368 60.2895 83.4901L49.5718 64.8706L47.779 61.7576C53.9415 60.4223 59.4246 57.2577 63.6348 52.8594L65.4138 55.9482L76.0256 74.3865C76.3971 75.0326 75.8253 75.8125 75.0977 75.6522Z" fill="#B9D8F9"/>
<path d="M75.0975 75.6518L65.7508 73.5948C65.3167 73.5005 64.8827 73.7509 64.7488 74.173L65.7549 71.0468C65.8906 70.6251 66.3252 70.3761 66.7577 70.4722L74.8007 72.2601L76.0256 74.3874C76.3979 75.0325 75.8249 75.8131 75.0975 75.6518Z" fill="#96B6D7"/>
<path d="M36.4185 61.497L23.7102 83.5695C23.3379 84.2163 22.3744 84.112 22.149 83.4005L19.2513 74.2528C19.1173 73.8297 18.6826 73.5787 18.2492 73.6741L8.90201 75.7313C8.17424 75.8916 7.60242 75.1115 7.9742 74.4657L19.7936 53.9315C24.2062 58.1148 30.1582 60.4663 36.4185 61.497Z" fill="#B9D8F9"/>
<path d="M21.4663 56.986L10.9342 75.2833L8.90252 75.7309C8.17476 75.8913 7.60277 75.1112 7.97454 74.4653L18.0353 56.986L20.7559 52.2471C21.4885 52.9406 22.2536 53.5997 23.0514 54.2192L21.4663 56.986Z" fill="#96B6D7"/>
<path d="M24.9499 81.4146L23.7095 83.5694C23.3372 84.2162 22.3748 84.1132 22.1483 83.4013L19.2506 74.2536C19.1168 73.8298 18.6828 73.5793 18.2487 73.6737L21.4535 72.9687C21.8869 72.8733 22.3214 73.1243 22.4554 73.5472L24.9499 81.4146Z" fill="#96B6D7"/>
<path d="M20.0796 53.4091L28.4379 57.1783L36.4185 61.497L34.2786 65.2113C28.3117 63.9999 22.7754 61.2225 18.1998 57.1321C18.1449 57.0839 18.09 57.0357 18.0351 56.9858L20.0796 53.4091Z" fill="#96B6D7"/>
<path d="M65.4137 55.9485L63.6346 52.8597L54.2203 57.0149L47.7788 61.7579L48.5028 63.0149L50.2807 66.1027L60.2893 83.4902C60.6616 84.137 61.6251 84.0326 61.8505 83.3212L62.4878 81.3091L52.5398 63.9812C57.3557 62.3054 61.7398 59.5789 65.4137 55.9485Z" fill="#96B6D7"/>
<path d="M73.1366 31.2308C73.1366 39.6248 69.834 47.248 64.4589 52.8596C60.2488 57.2579 54.7657 60.4226 48.6032 61.7579C46.4741 62.219 44.2661 62.4616 41.9998 62.4616C40.2704 62.4616 38.5754 62.3204 36.9232 62.0486C30.9838 61.0713 25.6087 58.4074 21.306 54.5632C21.0726 54.3567 20.8445 54.1468 20.618 53.9317C19.8151 53.1712 19.0533 52.3674 18.3328 51.5261C17.6431 50.7173 16.9946 49.8724 16.389 48.9948C14.5704 46.3638 13.1448 43.4366 12.196 40.3013C11.3296 37.431 10.863 34.3869 10.863 31.231C10.863 13.9832 24.8041 0 41.9998 0C45.1445 0 48.1811 0.468021 51.0411 1.33887C54.1687 2.28709 57.0852 3.71706 59.7101 5.54282C60.5851 6.15032 61.4274 6.80072 62.2321 7.49417C63.3095 8.41649 64.3217 9.41292 65.2636 10.4728C70.1617 15.9915 73.1366 23.2635 73.1366 31.2308Z" fill="#C1CBD6"/>
<path d="M41.9997 53.5997C54.3166 53.5997 64.3014 43.5847 64.3014 31.2306C64.3014 18.8765 54.3166 8.86151 41.9997 8.86151C29.6829 8.86151 19.6981 18.8765 19.6981 31.2306C19.6981 43.5847 29.6829 53.5997 41.9997 53.5997Z" fill="#E0E5EB"/>
<path d="M64.301 31.2308C64.301 43.5844 54.3161 53.5995 41.9997 53.5995C29.6833 53.5995 19.6984 43.5844 19.6984 31.2308C19.6984 30.298 19.755 29.3791 19.8665 28.4775C21.2184 39.5337 30.6131 48.0929 41.9997 48.0929C53.3863 48.0929 62.781 39.5337 64.1329 28.4775C64.2444 29.3793 64.301 30.2982 64.301 31.2308Z" fill="#AFB7C1"/>
<path fill-rule="evenodd" clip-rule="evenodd" d="M41.9997 8.86224C29.6833 8.86224 19.6984 18.8773 19.6984 31.231C19.6984 43.5847 29.6833 53.5998 41.9997 53.5998C54.3161 53.5998 64.301 43.5847 64.301 31.231C64.301 18.8773 54.3161 8.86224 41.9997 8.86224ZM41.9997 51.0185C31.121 51.0185 22.2718 42.1425 22.2718 31.231C22.2718 20.3195 31.121 11.4436 41.9997 11.4436C52.8784 11.4436 61.7276 20.3195 61.7276 31.231C61.7276 42.1425 52.8784 51.0185 41.9997 51.0185Z" fill="#D3D7DC"/>
<path d="M42.7702 18.861L45.8338 25.1191C45.9585 25.374 46.2013 25.5507 46.4823 25.5911L53.3673 26.5803C54.0719 26.6815 54.3538 27.5474 53.8437 28.0439L48.85 32.9065C48.6473 33.1039 48.555 33.3886 48.6032 33.6673L49.7931 40.5427C49.9148 41.2451 49.1762 41.7807 48.5462 41.447L42.4014 38.1907C42.1502 38.0576 41.8493 38.0576 41.5981 38.1907L35.4533 41.447C34.8233 41.7809 34.0847 41.2452 34.2064 40.5427L35.3963 33.6673C35.4445 33.3886 35.3522 33.1039 35.1495 32.9065L30.1558 28.0439C29.6457 27.5472 29.9276 26.6815 30.6322 26.5803L37.5172 25.5911C37.798 25.5507 38.0408 25.374 38.1657 25.1191L41.2293 18.861C41.5431 18.2201 42.4564 18.2201 42.7702 18.861Z" fill="#C1CBD6"/>
</svg>
