<svg fill="#76787a" id="Capa_1" enable-background="new 0 0 512 512" height="512" viewBox="0 0 512 512" width="512" xmlns="http://www.w3.org/2000/svg"><g><path d="m448.045 512c-2.442-5.811-3.795-12.187-3.795-18.875v-478.125c0-8.284-6.716-15-15-15h-414.25c-8.284 0-15 6.716-15 15v474.375c0 12.495 10.13 22.625 22.625 22.625zm-56.545-135.5c0 8.284-6.716 15-15 15h-120.5c-8.284 0-15-6.716-15-15v-120.5c0-8.284 6.716-15 15-15h120.5c8.284 0 15 6.716 15 15zm-331.25-301.25c0-8.284 6.716-15 15-15h301.25c8.284 0 15 6.716 15 15v120.5c0 8.284-6.716 15-15 15h-301.25c-8.284 0-15-6.716-15-15zm15 165.75h120.5c8.284 0 15 6.716 15 15s-6.716 15-15 15h-120.5c-8.284 0-15-6.716-15-15s6.716-15 15-15zm0 60.25h120.5c8.284 0 15 6.716 15 15s-6.716 15-15 15h-120.5c-8.284 0-15-6.716-15-15s6.716-15 15-15zm0 60.25h120.5c8.284 0 15 6.716 15 15s-6.716 15-15 15h-120.5c-8.284 0-15-6.716-15-15s6.716-15 15-15zm0 60.25h300.644c8.284 0 15 6.716 15 15s-6.716 15-15 15h-300.644c-8.284 0-15-6.716-15-15s6.716-15 15-15z"/><path d="m474.25 493.125c0 10.649 8.865 19.267 19.603 18.861 10.214-.386 18.147-9.103 18.147-19.325v-274.411c0-8.284-6.716-15-15-15h-22.75z"/><path d="m90.25 90.25h271.25v90.5h-271.25z"/><path d="m271 271h90.5v90.5h-90.5z"/></g></svg>