<svg width="34" height="25" viewBox="0 0 34 25" fill="none" xmlns="http://www.w3.org/2000/svg">
<path d="M3.33333 1.66663C1.49233 1.66663 0 3.16663 0 4.99996V21.6666C0 23.5 1.49233 25 3.33333 25H30C31.8417 25 33.3333 23.5 33.3333 21.6666V4.99996C33.3333 3.16663 31.8417 1.66663 30 1.66663H3.33333Z" fill="#C1CBD6"/>
<path d="M3.33333 0C1.49233 0 0 1.49233 0 3.33333V20C0 21.8417 1.49233 23.3333 3.33333 23.3333H30C31.8417 23.3333 33.3333 21.8417 33.3333 20V3.33333C33.3333 1.49233 31.8417 0 30 0H3.33333Z" fill="white"/>
<path d="M16.5 3L18.5066 9.49343H25L19.7467 13.5066L21.7533 20L16.5 15.9868L11.2467 20L13.2533 13.5066L8 9.49343H14.4934L16.5 3Z" fill="#FFD400"/>
</svg>
