<svg width="34" height="25" viewBox="0 0 34 25" fill="none" xmlns="http://www.w3.org/2000/svg">
<path d="M3.33333 1.66663C1.49233 1.66663 0 3.16663 0 4.99996V21.6666C0 23.5 1.49233 25 3.33333 25H30C31.8417 25 33.3333 23.5 33.3333 21.6666V4.99996C33.3333 3.16663 31.8417 1.66663 30 1.66663H3.33333Z" fill="#C1CBD6"/>
<path d="M3.33333 0C1.49233 0 0 1.49233 0 3.33333V20C0 21.8417 1.49233 23.3333 3.33333 23.3333H30C31.8417 23.3333 33.3333 21.8417 33.3333 20V3.33333C33.3333 1.49233 31.8417 0 30 0H3.33333Z" fill="white"/>
<path d="M15 3.33337H3.33337V20H15V3.33337Z" fill="#C1CBD6"/>
<path d="M8.85421 4.9999C7.80417 5.07887 6.82298 5.55248 6.10794 6.32549C5.39291 7.0985 4.99708 8.11357 5.00004 9.16656C5.00017 9.74476 5.12063 10.3166 5.35376 10.8457C5.5869 11.3748 5.9276 11.8496 6.35421 12.2399C5.15687 12.7349 4.12171 13.5216 3.33337 14.5316V18.3332V19.9999H15V18.3332V14.4799C14.21 13.4932 13.1579 12.7266 11.9792 12.2399C12.4058 11.8496 12.7465 11.3748 12.9796 10.8457C13.2128 10.3166 13.3332 9.74476 13.3334 9.16656C13.335 8.59207 13.2178 8.02345 12.9891 7.49642C12.7605 6.96939 12.4253 6.49534 12.0047 6.10405C11.584 5.71276 11.087 5.41268 10.5448 5.22266C10.0027 5.03265 9.42708 4.95681 8.85421 4.9999V4.9999Z" fill="#5A738F"/>
<path d="M18.3334 5V6.66667H25V5H18.3334ZM18.3334 8.33333V10H30V8.33333H18.3334ZM18.3334 11.6667V13.3333H30V11.6667H18.3334Z" fill="#FD7785"/>
</svg>
