<svg width="34" height="25" viewBox="0 0 34 25" fill="none" xmlns="http://www.w3.org/2000/svg">
<path d="M30.5957 4.66394H17.9713C16.4107 6.87928 15.5121 9.60749 15.5121 12.5C15.5121 15.3925 16.4108 18.1207 17.9714 20.336L30.5958 20.336C32.1564 18.1206 33.055 15.3924 33.055 12.5C33.055 9.60749 32.1564 6.87928 30.5957 4.66394V4.66394Z" fill="#FD7785"/>
<path d="M30.5957 4.66394H24.2836V20.3359H30.5957C32.1563 18.1206 33.055 15.3924 33.055 12.5C33.055 9.60747 32.1564 6.87927 30.5957 4.66394V4.66394Z" fill="#C25561"/>
<path d="M24.2836 15.8499C23.7488 15.8499 23.3152 15.4163 23.3152 14.8815V10.1945C23.3152 9.65966 23.7488 9.22607 24.2836 9.22607C24.8184 9.22607 25.252 9.65966 25.252 10.1945V14.8815C25.252 15.4163 24.8184 15.8499 24.2836 15.8499Z" fill="#FFF5F5"/>
<path d="M24.2836 9.22607V15.8499C24.8184 15.8499 25.252 15.4163 25.252 14.8815V10.1945C25.252 9.65966 24.8184 9.22607 24.2836 9.22607Z" fill="#E4E4FF"/>
<path d="M24.2835 6.22698C26.4788 6.22698 28.6603 5.68629 30.5955 4.66404C29.1238 2.57485 27.0632 0.941794 24.6122 0.0575073C24.3997 -0.0191907 24.1673 -0.0191261 23.9548 0.0574428C21.5038 0.941665 19.4433 2.57473 17.9714 4.66404C19.9066 5.68629 22.0881 6.22698 24.2835 6.22698Z" fill="#FFF5F5"/>
<path d="M24.6122 0.0575234C24.506 0.0191744 24.3948 0 24.2836 0V6.22693C26.4788 6.22693 28.6603 5.68624 30.5956 4.66399C29.1237 2.57487 27.0632 0.94181 24.6122 0.0575234Z" fill="#E4E4FF"/>
<path d="M24.2836 18.7729C22.0884 18.7729 19.9069 19.3136 17.9717 20.3358C19.4435 22.4251 21.504 24.0581 23.955 24.9425C24.0612 24.9808 24.1725 25 24.2837 25C24.3949 25 24.5061 24.9808 24.6124 24.9425C27.0634 24.0582 29.1239 22.4251 30.5957 20.3358C28.6605 19.3136 26.479 18.7729 24.2836 18.7729V18.7729Z" fill="#FFF5F5"/>
<path d="M24.2836 18.7729V24.9999C24.3948 24.9999 24.506 24.9808 24.6122 24.9424C27.0632 24.0581 29.1238 22.4251 30.5956 20.3358C28.6605 19.3136 26.479 18.7729 24.2836 18.7729Z" fill="#E4E4FF"/>
<path d="M10.6525 4.3405L9.68406 3.73847C7.46097 3.9397 5.43286 4.82683 3.81348 6.18603L3.55078 7.35665L2.44176 7.56776C1.11051 9.17714 0.242426 11.1829 0.0435791 13.379L0.645609 14.3474L0.0435791 15.3158C0.242362 17.5118 1.11045 19.5176 2.44169 21.1271L3.626 21.2911L3.79301 22.4915C5.41569 23.8604 7.45155 24.7543 9.684 24.9564L10.6525 24.3542L11.621 24.9563C13.844 24.755 15.8722 23.8679 17.4915 22.5088L17.6681 21.1297L18.8633 21.1271C20.1945 19.5177 21.0627 17.5119 21.2614 15.3158L20.6594 14.3474L21.2614 13.379C21.0626 11.1829 20.1945 9.1772 18.8633 7.5677L17.7757 7.32431C17.7757 7.32431 17.4983 6.19184 17.4915 6.1861C15.8723 4.8269 13.8441 3.9397 11.621 3.7384L10.6525 4.3405Z" fill="#FFD400"/>
<path d="M21.2614 13.379C21.0625 11.1829 20.1944 9.1772 18.8632 7.5677L17.7757 7.32431C17.7757 7.32431 17.4982 6.19184 17.4915 6.1861C15.8722 4.8269 13.844 3.9397 11.6209 3.7384L10.6525 4.3405V24.3542L11.6209 24.9563C13.844 24.755 15.8721 23.8679 17.4915 22.5088L17.668 21.1297L18.8632 21.1271C20.1944 19.5177 21.0626 17.5119 21.2614 15.3158L20.6593 14.3474L21.2614 13.379Z" fill="#FDBF00"/>
<path d="M11.621 11.3976C14.5279 11.1344 17.1011 9.69821 18.8632 7.56796C18.656 7.3174 18.0047 7.55492 17.7757 7.32443C17.5467 7.09402 17.7401 6.39566 17.4911 6.18668C16.0823 7.96766 13.9938 9.1876 11.621 9.45113V3.73937C11.3019 3.71051 10.979 3.69482 10.6525 3.69482C10.3261 3.69482 10.0032 3.71045 9.68413 3.73937V9.45113C7.31126 9.1876 5.22278 7.96759 3.814 6.18668C3.31597 6.60471 2.8563 7.06684 2.44182 7.56796C4.20394 9.69821 6.77721 11.1344 9.68413 11.3976V13.379H0.0444824C0.0155592 13.6981 0 14.0209 0 14.3474C0 14.6739 0.0155592 14.9968 0.0444824 15.3158H9.68413V17.2973C6.77727 17.5606 4.20401 18.9966 2.44188 21.127C2.8563 21.628 3.31604 22.0902 3.814 22.5081C5.22278 20.7271 7.31126 19.5072 9.68413 19.2437V24.9554C10.0032 24.9843 10.3261 24.9999 10.6525 24.9999C10.979 24.9999 11.3019 24.9843 11.621 24.9554V19.2437C13.9938 19.5072 16.0822 20.7271 17.4911 22.5081C17.7265 22.3106 17.4506 21.3463 17.6681 21.1296C17.9108 20.8878 18.6446 21.3911 18.8632 21.127C17.1011 18.9966 14.5279 17.5605 11.621 17.2972V15.3158H21.2606C21.2895 14.9967 20.5979 14.6738 20.5979 14.3474C20.5979 14.0209 21.2895 13.698 21.2606 13.379H11.621V11.3976Z" fill="#FDBF00"/>
<path d="M21.2605 15.3158C21.2894 14.9968 21.305 14.6739 21.305 14.3474C21.305 14.0209 21.2894 13.6981 21.2605 13.379H11.6209V11.3976C14.5278 11.1344 17.1011 9.69821 18.8631 7.56796C18.4487 7.06684 17.989 6.60471 17.491 6.18668C16.0822 7.96766 13.9937 9.1876 11.6209 9.45113V3.73937C11.3018 3.71051 10.979 3.69482 10.6525 3.69482V24.9999C10.979 24.9999 11.3018 24.9843 11.6209 24.9554V19.2437C13.9937 19.5072 16.0822 20.7271 17.491 22.5081C17.989 22.0901 18.4486 21.628 18.8631 21.127C17.101 18.9966 14.5278 17.5606 11.6209 17.2973V15.3158H21.2605Z" fill="#FF9F00"/>
</svg>
